<svg id="Layer_1" data-name="Layer 1" xmlns="http://www.w3.org/2000/svg" viewBox="0 0 100 100"><path d="M86.854,68.847a3.324,3.324,0,0,0-1.462,4.472A10.354,10.354,0,0,1,86.51,78.05,10.607,10.607,0,1,1,75.931,67.442a3.326,3.326,0,0,0,0-6.623A17.209,17.209,0,0,0,62.456,67.3l-21.9-12.471a16.813,16.813,0,0,0,0-9.519L62.37,32.924A17.2,17.2,0,0,0,93.161,22.23a16.807,16.807,0,0,0-1.835-7.712,3.3,3.3,0,0,0-4.444-1.462,3.326,3.326,0,0,0-1.49,4.444,10.471,10.471,0,0,1,1.146,4.73A10.607,10.607,0,1,1,75.931,11.623a3.326,3.326,0,0,0,0-6.623A17.2,17.2,0,0,0,59.36,26.99L34.819,40.952a3.326,3.326,0,0,0-1.52,3.9,5.589,5.589,0,0,0,.258.6,10.608,10.608,0,1,1-9.575-5.992,3.326,3.326,0,1,0,0-6.623A17.2,17.2,0,1,0,37.514,60.733L59.36,73.061a17.2,17.2,0,1,0,31.966-2.867,3.327,3.327,0,0,0-4.472-1.347Z"/></svg>