<svg id="Layer_1" data-name="Layer 1" xmlns="http://www.w3.org/2000/svg" viewBox="0 0 100 100"><path d="M93.5,41.406,51.7,22.9a2.644,2.644,0,0,0-1.956,0L6.472,41.406a2.486,2.486,0,0,0-.159,4.468L29.1,57.532a2.433,2.433,0,0,0,2.961.185c18.505-12.293,31.723-2.908,34.737-.238v9.015a23.023,23.023,0,0,0-16.787,4.785,22.947,22.947,0,0,0-16.734-4.812V62.872a2.459,2.459,0,0,0-4.917,0v6.45a2.433,2.433,0,0,0,.952,1.957,2.406,2.406,0,0,0,2.141.423,18.506,18.506,0,0,1,16.76,4.52,2.456,2.456,0,0,0,1.745.714h0a2.461,2.461,0,0,0,1.745-.714A18.5,18.5,0,0,1,68.517,71.7a2.354,2.354,0,0,0,2.115-.423,2.433,2.433,0,0,0,.952-1.957V56.4a2.432,2.432,0,0,0-.688-1.718,29.067,29.067,0,0,0-11.658-6.715c-6.45-1.983-16.549-2.643-28.683,4.812L13.134,43.865,50.593,28,87.6,44.235,76.078,52.509A2.462,2.462,0,0,0,78.959,56.5L93.948,45.715a2.432,2.432,0,0,0-.423-4.23"/><path d="M90.935,51.135a2.458,2.458,0,0,0-2.459,2.432V70.8a2.459,2.459,0,0,0,4.917,0V53.567a2.43,2.43,0,0,0-2.458-2.432Z"/></svg>