<svg id="Layer_1" data-name="Layer 1" xmlns="http://www.w3.org/2000/svg" viewBox="0 0 100 100"><path d="M72.519,52.112a3.307,3.307,0,1,0-4.879,4.466,23.916,23.916,0,0,1,6.3,16.251V87.053a1.207,1.207,0,0,1-.081.472,1.2,1.2,0,0,1-1.12.767H27.218a1.2,1.2,0,0,1-.862-.365,1.179,1.179,0,0,1-.258-.4,1.207,1.207,0,0,1-.081-.472V72.829A23.983,23.983,0,0,1,50,48.847,21.918,21.918,0,1,0,28.119,26.928a22.217,22.217,0,0,0,2.59,10.4,3.308,3.308,0,1,0,5.817-3.152,15.567,15.567,0,0,1-1.8-7.244A15.313,15.313,0,1,1,50,42.241,30.663,30.663,0,0,0,19.374,72.829V87.091a7.881,7.881,0,0,0,7.844,7.919H72.781a7.88,7.88,0,0,0,7.844-7.844V72.9a30.516,30.516,0,0,0-8.106-20.792"/></svg>