<svg id="Layer_1" data-name="Layer 1" xmlns="http://www.w3.org/2000/svg" viewBox="0 0 100 100"><path d="M77.665,59.478a46.791,46.791,0,0,1-28.2,11.12C36.778,70.6,24.4,63.655,12.6,49.955a73.728,73.728,0,0,1,9.769-9.462A46.847,46.847,0,0,1,50.571,29.4c12.687,0,25.067,6.942,36.863,20.612a68.387,68.387,0,0,1-9.769,9.462ZM94.315,47.9C80.737,31.247,66.084,22.768,50.694,22.768a46.087,46.087,0,0,0-18.432,4.024,64.516,64.516,0,0,0-14.13,8.663A72.734,72.734,0,0,0,5.69,48.05a3.29,3.29,0,0,0,0,4.024C19.238,68.755,33.921,77.2,49.311,77.2a46.083,46.083,0,0,0,18.432-4.024,64.507,64.507,0,0,0,14.131-8.663A72.758,72.758,0,0,0,94.315,51.921a3.287,3.287,0,0,0,0-4.025"/><path d="M62.29,46.728a3.289,3.289,0,0,0-3.41,3.287,8.909,8.909,0,1,1-8.908-8.847A3.318,3.318,0,1,0,50,34.655a15.359,15.359,0,1,0,15.359,15.36,3.318,3.318,0,0,0-3.072-3.287Z"/></svg>