<svg id="Layer_1" data-name="Layer 1" xmlns="http://www.w3.org/2000/svg" viewBox="0 0 100 100"><path d="M59.417,12.555H40.495a3.366,3.366,0,0,0-3.367,3.367V69.458a3.367,3.367,0,0,0,6.734,0v-50.3H56.185v5.757a3.367,3.367,0,1,0,6.734,0V15.855a3.366,3.366,0,0,0-3.367-3.367"/><path d="M91.623,35.956H59.434a3.366,3.366,0,0,0-3.367,3.367V80.771H11.623V57.2H23.98V69.424a3.367,3.367,0,0,0,6.734,0V53.9a3.368,3.368,0,0,0-3.367-3.367H8.39A3.366,3.366,0,0,0,5.023,53.9v30.3A3.366,3.366,0,0,0,8.39,87.572H59.5a3.366,3.366,0,0,0,3.367-3.367V42.555H88.424V80.7H76.067V54.777a3.367,3.367,0,0,0-6.734,0V84A3.366,3.366,0,0,0,72.7,87.37H91.656A3.366,3.366,0,0,0,95.023,84V39.256a3.366,3.366,0,0,0-3.367-3.367"/></svg>