<svg id="Layer_1" data-name="Layer 1" xmlns="http://www.w3.org/2000/svg" viewBox="0 0 100 100"><path d="M71.178,76.856a63.1,63.1,0,0,1-17.2,11.932A62.024,62.024,0,0,1,65.91,71.556a62.877,62.877,0,0,1,17.2-11.9,62.852,62.852,0,0,1-11.932,17.2Zm-42.429,0a62.9,62.9,0,0,1-11.9-17.2,62.847,62.847,0,0,1,17.2,11.9A62.006,62.006,0,0,1,45.981,88.788,63.657,63.657,0,0,1,28.749,76.856ZM46.615,17.068a18.651,18.651,0,0,1,3.364-6.347,18.616,18.616,0,0,1,3.364,6.347,3.364,3.364,0,0,1-6.728,0ZM33.922,53.69A47.3,47.3,0,0,1,25.48,41.884,43.888,43.888,0,0,1,45.727,62.131a48.143,48.143,0,0,1-11.8-8.441Zm5.236-19.676a31.235,31.235,0,0,1-4.729-6.188A29.387,29.387,0,0,1,45.346,38.743a31.2,31.2,0,0,1-6.188-4.729Zm19.993-1.46A31.178,31.178,0,0,1,65.5,27.826a31.2,31.2,0,0,1-4.729,6.188,32.714,32.714,0,0,1-6.188,4.76,32.333,32.333,0,0,1,4.728-6.347Zm3.49,17.613a47.108,47.108,0,0,1,11.806-8.41A44.422,44.422,0,0,1,54.2,62a47.17,47.17,0,0,1,8.441-11.837ZM88.7,54.007a2.163,2.163,0,0,0-2.19-.508A66.146,66.146,0,0,0,62.927,68.415,64.2,64.2,0,0,0,52.2,82.854V67.621A52.267,52.267,0,0,0,69.052,56.577a51.471,51.471,0,0,0,11.583-18.31,2.126,2.126,0,0,0-2.7-2.7A51.474,51.474,0,0,0,59.6,47.152,48.572,48.572,0,0,0,52.2,56.673V44.55a37.769,37.769,0,0,0,11.583-7.712,36.9,36.9,0,0,0,8.283-13.074,2.19,2.19,0,0,0-.508-2.222,2.159,2.159,0,0,0-2.19-.507A36.854,36.854,0,0,0,56.3,29.317,31.7,31.7,0,0,0,52.2,34.3V24.525a7.712,7.712,0,0,0,5.49-7.33,14.185,14.185,0,0,0-3.174-7.3,48.662,48.662,0,0,0-2.856-4.031,2.127,2.127,0,0,0-3.364,0A49.141,49.141,0,0,0,45.441,9.9a14.192,14.192,0,0,0-3.173,7.3,7.711,7.711,0,0,0,5.522,7.33V34.649a34,34,0,0,0-4.126-4.983,36.871,36.871,0,0,0-13.075-8.282,2.157,2.157,0,0,0-2.189.507,2.19,2.19,0,0,0-.508,2.222,36.911,36.911,0,0,0,8.283,13.075A37.471,37.471,0,0,0,47.79,44.9V57.022A50.048,50.048,0,0,0,40.364,47.5,51.474,51.474,0,0,0,22.021,35.918a2.126,2.126,0,0,0-2.7,2.7A49.315,49.315,0,0,0,47.885,67.97V83.2A65.447,65.447,0,0,0,37.127,68.764,66.146,66.146,0,0,0,13.548,53.848a2.127,2.127,0,0,0-2.7,2.7A66.146,66.146,0,0,0,25.766,80.125,67.215,67.215,0,0,0,49.345,95.04h1.332A67.206,67.206,0,0,0,74.256,80.125,66.146,66.146,0,0,0,89.172,56.546a2.156,2.156,0,0,0-.508-2.19"/></svg>